<svg width="70" height="55" viewBox="0 0 70 55" fill="none" xmlns="http://www.w3.org/2000/svg">
<path d="M70 17.2549H57.7846V23.0637H64.1778L70 17.2549Z" fill="#848BA4"/>
<path d="M38.016 17.2549H53.0679V23.085H53.0708V36.2368L46.0327 43.2589V23.0637H32.1938L38.016 17.2549Z" fill="#848BA4"/>
<path d="M55.3259 0L49.5611 5.75163H21.4871V5.81699H21.0242C16.5632 5.94629 13.1541 7.61023 10.7968 10.8088C8.36474 14.1176 7.13643 18.9216 7.11187 25.2206V29.5956C7.11187 35.6005 8.48757 40.3799 11.239 43.9338C13.9904 47.4632 17.7121 49.2279 22.4042 49.2279C25.0574 49.2279 27.3789 48.9338 29.3687 48.3456C31.3585 47.7574 33.0045 46.7647 34.3065 45.3676V33.3456H21.8883L27.6368 27.6103H41.3446V47.2426C39.5268 49.8407 36.9842 51.7892 33.7169 53.0882C30.4742 54.3627 26.691 55 22.3674 55C17.9946 55 14.1132 53.9828 10.7231 51.9485C7.33296 49.8897 4.7044 46.973 2.83738 43.1985C0.994925 39.424 0.0491321 35.049 0 30.0735V25.4044C0 17.3407 1.8793 11.0907 5.63791 6.65441C9.31074 2.34753 14.4191 0.131277 20.963 0.0056647V0H55.3259Z" fill="#848BA4"/>
</svg>
